<?xml version="1.0" encoding="UTF-8"?>
<svg width="300pt" height="184pt" version="1.0" viewBox="0 0 300.000000 184.000000" xmlns="http://www.w3.org/2000/svg" xmlns:cc="http://creativecommons.org/ns#" xmlns:dc="http://purl.org/dc/elements/1.1/" xmlns:rdf="http://www.w3.org/1999/02/22-rdf-syntax-ns#">
 <metadata>Created by potrace 1.10, written by Peter Selinger 2001-2011
  <rdf:RDF>
   <cc:Work rdf:about="">
    <dc:format>image/svg+xml</dc:format>
    <dc:type rdf:resource="http://purl.org/dc/dcmitype/StillImage"/>
    <dc:title/>
   </cc:Work>
  </rdf:RDF>
 </metadata>
 <g transform="translate(0 184) scale(.1 -.1)" fill="#c43915">
  <path d="m2662 1580l53-60 50 6c28 3 65 9 83 14 17 5 32 6 32 3s-16-36-37-75l-36-70 36-68c21-37 37-69 37-72s-36 2-81 11l-81 15-55-57c-30-31-56-57-58-57-1 0-6 30-10 68-4 37-11 74-15 83-5 9-38 29-74 45s-66 32-66 35c0 4 29 19 65 34 36 16 69 33 74 39s12 45 15 86c6 80-6 58-19-33-6-47-6-47-76-79-48-22-69-36-67-47 2-9 34-31 71-49 57-28 67-37 69-60 1-32 2-36 11-84 4-21 13-40 18-44 6-3 37 19 68 50l56 56 74-16c98-20 104-13 59 75l-34 69 33 67c34 67 37 102 7 91-9-3-46-9-83-12l-67-6-46 51c-25 28-49 51-53 51-3 0 18-27 47-60z"/>
  <path d="m2798 1563c7-3 16-2 19 1 4 3-2 6-13 5-11 0-14-3-6-6z"/>
  <path d="m1917 1453c18-2 50-2 70 0 21 2 7 4-32 4-38 0-55-2-38-4z"/>
  <path d="m2108 1433c7-3 16-2 19 1 4 3-2 6-13 5-11 0-14-3-6-6z"/>
  <path d="m1854 1412c-84-29-125-73-149-158-8-29 9-98 31-132 10-15 17-32 16-39-1-6 2-14 8-18s7 1 3 10c-5 16-3 16 27 0 26-13 30-19 19-27s-9-8 5-4c23 8 220-31 258-50 36-18 45-57 25-99-20-43-96-71-166-61-65 9-144 38-128 48 8 5 5 8-9 8-12 0-34 7-50 14-15 8-31 13-36 10-4-3-8-32-8-65v-60l44-19c95-40 226-51 315-24 89 26 170 120 171 197 0 40-38 114-71 138-32 22-92 42-189 60-36 7-81 19-100 27-32 13-33 15-15 24 19 8 19 8-2 4-37-7-45 46-13 87 43 54 185 54 291-1 32-17 60-27 63-24s6 31 6 63c0 57 0 57-38 72-96 39-227 47-308 19zm270-22l66-21v-49c0-54-4-58-35-34-29 22-141 54-189 54-99 0-156-40-156-110 0-58 27-75 164-104 191-41 231-72 231-180 0-80-32-133-102-167-71-35-231-38-323-7l-65 23-3 57-3 58 49-31c157-97 362-69 362 51 0 64-27 82-162 109-177 35-238 82-238 183 0 79 47 143 125 172 61 22 200 20 279-4z"/>
  <path d="m597 1414c-10-10-9-82 1-88 5-3 36-6 70-7l60-2 2-174c1-216-5-270-35-289-27-17-54-20-127-10l-58 7v-50c0-55-1-54 83-66 103-14 214 44 237 123 7 23 10 133 8 297l-3 260-116 3c-63 1-118-1-122-4zm231-276c-3-295-7-312-74-358-39-26-132-38-199-26-33 7-35 9-35 47v41l33-9c61-16 136-8 160 16 21 21 22 30 25 254l3 232-70-3-71-4v36 36h116 115l-3-262z"/>
  <path d="m985 1408c-3-7-4-159-3-338l3-325 29-3c15-2 39-1 52 2l24 6 1 248c0 147 4 239 9 227 5-11 9-33 10-50 2-19 4-23 7-12 3 12 25-26 63-110l59-128h37 38l60 130 61 130 3-205c2-112 5-206 8-209 2-2 4 94 4 215 0 309 14 319 20 14l5-255h50c47 0 49 1 55 30 9 44 5 618-4 633-12 20-120 16-138-5-13-16-76-149-109-229-9-23-13-25-16-11-3 9-9 17-14 17-12 0-11-6 3-30 10-15 10-22 0-32-9-9-12-8-12 5 0 9-5 17-10 17-7 0-7-7 0-21 6-11 10-27 8-36s-37 56-78 143-78 160-82 162-5 9-2 16c4 10-13 13-66 15-50 1-72-2-75-11zm206-173c43-91 79-170 79-175 0-33 25 9 90 153 40 89 78 168 83 175 6 7 33 12 68 12h59v-320-320h-45-46l3 274c2 151 1 272-2 269-3-2-44-86-91-186-113-240-111-240-200-50-35 76-76 163-91 193l-27 55v-277l-1-278h-40-40v320 320h61 60l80-165z"/>
  <path d="m1790 1410c0-5 7-7 15-4 8 4 15 8 15 10s-7 4-15 4-15-4-15-10z"/>
  <path d="m1165 1360c3-5 8-10 11-10 2 0 4 5 4 10 0 6-5 10-11 10-5 0-7-4-4-10z"/>
  <path d="m1380 1359c0-5 5-7 10-4 6 3 10 8 10 11 0 2-4 4-10 4-5 0-10-5-10-11z"/>
  <path d="m1192 1310c0-14 2-19 5-12 2 6 2 18 0 25-3 6-5 1-5-13z"/>
  <path d="m1361 1314c0-11 3-14 6-6 3 7 2 16-1 19-3 4-6-2-5-13z"/>
  <path d="m620 1290c0-5 5-10 11-10 5 0 7 5 4 10-3 6-8 10-11 10-2 0-4-4-4-10z"/>
  <path d="m695 1291c-3-5-1-12 5-16 5-3 10 1 10 9 0 18-6 21-15 7z"/>
  <path d="m1681 1284c0-11 3-14 6-6 3 7 2 16-1 19-3 4-6-2-5-13z"/>
  <path d="m1856 1279c-22-22-10-25 17-5 10 8 15 16 10 19-4 2-17-4-27-14z"/>
  <path d="m2126 1255c10-8 23-15 28-15 6 0 1 7-10 15-10 8-23 15-28 15-6 0-1-7 10-15z"/>
  <path d="m1231 1224c0-11 3-14 6-6 3 7 2 16-1 19-3 4-6-2-5-13z"/>
  <path d="m1317 1220c-3-11-1-20 4-20s9 9 9 20-2 20-4 20-6-9-9-20z"/>
  <path d="m1845 1220c3-5 8-10 11-10 2 0 4 5 4 10 0 6-5 10-11 10-5 0-7-4-4-10z"/>
  <path d="m862 1170c0-19 2-27 5-17 2 9 2 25 0 35-3 9-5 1-5-18z"/>
  <path d="m1601 1174c0-11 3-14 6-6 3 7 2 16-1 19-3 4-6-2-5-13z"/>
  <path d="m1255 1170c3-5 8-10 11-10 2 0 4 5 4 10 0 6-5 10-11 10-5 0-7-4-4-10z"/>
  <path d="m1681 1164c0-11 3-14 6-6 3 7 2 16-1 19-3 4-6-2-5-13z"/>
  <path d="m2018 1153c6-2 18-2 25 0 6 3 1 5-13 5s-19-2-12-5z"/>
  <path d="m1121 1124c0-11 3-14 6-6 3 7 2 16-1 19-3 4-6-2-5-13z"/>
  <path d="m1410 1094c0-8 5-12 10-9 6 3 10 10 10 16 0 5-4 9-10 9-5 0-10-7-10-16z"/>
  <path d="m1390 1044c0-8 5-12 10-9 6 3 10 10 10 16 0 5-4 9-10 9-5 0-10-7-10-16z"/>
  <path d="m703 960c0-25 2-35 4-22 2 12 2 32 0 45-2 12-4 2-4-23z"/>
  <path d="m1181 984c0-11 3-14 6-6 3 7 2 16-1 19-3 4-6-2-5-13z"/>
  <path d="m1990 990c0-5 12-10 26-10s23 4 19 10c-3 6-15 10-26 10-10 0-19-4-19-10z"/>
  <path d="m2070 971c0-5 5-13 10-16 6-3 10-2 10 4 0 5-4 13-10 16-5 3-10 2-10-4z"/>
  <path d="m861 924c0-11 3-14 6-6 3 7 2 16-1 19-3 4-6-2-5-13z"/>
  <path d="m2081 914c0-11 3-14 6-6 3 7 2 16-1 19-3 4-6-2-5-13z"/>
  <path d="m680 869c0-5 5-7 10-4 6 3 10 8 10 11 0 2-4 4-10 4-5 0-10-5-10-11z"/>
  <path d="m2231 864c0-11 3-14 6-6 3 7 2 16-1 19-3 4-6-2-5-13z"/>
  <path d="m615 860c-30-8-30-8 8-9 23-1 36 3 32 9-3 6-7 9-8 9-1-1-15-5-32-9z"/>
  <path d="m1920 860c0-5 20-10 45-10s45 5 45 10c0 6-20 10-45 10s-45-4-45-10z"/>
  <path d="m845 850c-3-5-1-10 4-10 6 0 11 5 11 10 0 6-2 10-4 10-3 0-8-4-11-10z"/>
  <path d="m1660 849c0-5 5-7 10-4 6 3 10 8 10 11 0 2-4 4-10 4-5 0-10-5-10-11z"/>
  <path d="m483 805c0-22 2-30 4-17 2 12 2 30 0 40-3 9-5-1-4-23z"/>
  <path d="m1735 740c4-6 11-8 16-5 14 9 11 15-7 15-8 0-12-5-9-10z"/>
  <path d="m528 723c6-2 18-2 25 0 6 3 1 5-13 5s-19-2-12-5z"/>
  <path d="m718 723c7-3 16-2 19 1 4 3-2 6-13 5-11 0-14-3-6-6z"/>
  <path d="m1018 723c12-2 30-2 40 0 9 3-1 5-23 4-22 0-30-2-17-4z"/>
  <path d="m1508 723c12-2 30-2 40 0 9 3-1 5-23 4-22 0-30-2-17-4z"/>
  <path d="m1793 723c9-2 23-2 30 0 6 3-1 5-18 5-16 0-22-2-12-5z"/>
  <path d="m1928 713c12-2 32-2 45 0 12 2 2 4-23 4s-35-2-22-4z"/>
  <path d="m383 633c-7-3-13-10-13-17s-10-24-23-38-21-31-19-38c3-8 0-10-7-6-7 5-10 2-9-5 2-9-17-15-65-20-82-9-101-19-31-18 93 2 105 9 144 77l36 62 30-61c32-68 42-74 133-85 34-3 61-9 60-13 0-3-24-24-52-47-56-44-60-57-44-151l7-43-72 36-73 35-69-31c-37-17-66-34-62-37 3-3 30 6 61 21 31 14 62 26 70 26 18 0 86-31 103-47 17-17 41-16 48 0 3 8 1 40-5 73-7 48-6 62 6 76 9 10 21 15 27 11 6-3 8-3 4 2-4 4 9 22 29 40 20 17 33 37 29 43-3 6-39 16-80 22l-73 12-28 54c-32 60-44 73-62 67z"/>
  <path d="m2360 543c0-5 39-29 88-55l87-47 105 20c58 10 108 19 112 19s-13-30-39-66l-45-65 28-31c33-34 104-92 104-85 0 3-25 30-56 60-52 51-55 56-43 78 6 13 21 32 32 42 11 9 17 17 13 17-3 0 1 11 10 25 15 23 15 25 0 31-9 4-63-1-120-11l-103-16-86 46c-48 26-87 43-87 38z"/>
  <path d="m2340 505c0-54-12-105-23-98-6 3-7 1-3-5 4-7 1-12-9-12-8 0-23-4-33-9-9-6-38-17-64-27-92-32-84-51 32-74 36-7 74-20 84-29 13-11 17-12 11-2-5 9-3 12 6 9 8-3 25-35 39-71 14-38 30-67 38-67s42 21 75 48l62 47 118-1c145-2 142 12-3 18l-105 5-73-55c-40-30-74-53-75-51-2 2-14 33-28 69l-25 65-109 26c-61 15-103 29-95 32s54 20 102 37l86 32 4 62c2 33 0 65-4 71-4 5-8-4-8-20z"/>
  <path d="m160 474c0-4 16-22 35-39 19-18 31-36 27-40-4-5-2-5 4-2 26 15 33-18 19-78-17-72-18-82-6-70 8 10 31 102 31 129 0 7-25 34-55 60s-55 44-55 40z"/>
 </g>
</svg>
